<?xml version="1.0" encoding="iso-8859-1"?>
<!-- Generator: Adobe Illustrator 19.0.0, SVG Export Plug-In . SVG Version: 6.00 Build 0)  -->
<svg xmlns="http://www.w3.org/2000/svg" xmlns:xlink="http://www.w3.org/1999/xlink" version="1.1" id="Layer_1" x="0px" y="0px" viewBox="0 0 488 488" style="enable-background:new 0 0 488 488;" xml:space="preserve" width="512px" height="512px">
<g transform="translate(0 -540.36)">
	<g>
		<g>
			<path d="M203.3,734.06c-19,0-36.9,7.3-50.3,20.5c-13.5,13.4-21,31.3-21,50.5c0,39.2,32,71,71.3,71c39.3,0,71.3-31.9,71.3-71     c0-19.2-7.5-37.2-21-50.5C240.2,741.36,222.3,734.06,203.3,734.06z M203.3,856.06c-28.3,0-51.3-22.9-51.3-51     c0-28.6,22.5-51,51.3-51c28.8,0,51.3,22.4,51.3,51C254.6,833.16,231.6,856.06,203.3,856.06z" fill="#FFFFFF"/>
			<path d="M325.9,581.66c-5.5,0-10,4.5-10,10v29.7c0,5.5,4.5,10,10,10s10-4.5,10-10v-29.7C335.9,586.16,331.4,581.66,325.9,581.66z     " fill="#FFFFFF"/>
			<path d="M458.5,926.76h-9.9v-20.4h9.8l0,0.1c5.5,0,10-4.5,10-10v-304.9c0-2.2-0.7-4.2-2-6l-30.6-41.2c-1.9-2.5-4.9-4-8-4h-40.6     H101.5h-72c-5.5,0-10,4.5-10,10v468c0,5.5,4.5,10,10,10h429c5.5,0,10-4.5,10-10v-81.6C468.5,931.26,464,926.76,458.5,926.76z      M111.5,560.46h265.7v92H111.5V560.46z M448.4,886.46L448.4,886.46h-9.9c-5.5,0-10,4.5-10,10v40.4c0,5.5,4.5,10,10,10h9.9v61.6     h-409v-448h52v102c0,5.5,4.5,10,10,10h285.7c5.5,0,10-4.5,10-10v-102h25.6l25.7,34.5V886.46z" fill="#FFFFFF"/>
		</g>
	</g>
</g>
<g>
</g>
<g>
</g>
<g>
</g>
<g>
</g>
<g>
</g>
<g>
</g>
<g>
</g>
<g>
</g>
<g>
</g>
<g>
</g>
<g>
</g>
<g>
</g>
<g>
</g>
<g>
</g>
<g>
</g>
</svg>
